STARTFONT   2.1
FONT -infocom-Zork-medium-r-normal--13-130-72-72-c-80-misc-fontspecific
SIZE  13  96   96
FONTBOUNDINGBOX 8  13  0  -1
STARTPROPERTIES  4
FONT_ASCENT 12
FONT_DESCENT 1
CAP_HEIGHT 12
DEFAULT_CHAR 32
ENDPROPERTIES
CHARS  96
STARTCHAR 0
ENCODING 32
SWIDTH    8000    0
DWIDTH    8    0
BBX  8  13  0   -1
BITMAP
00
00
00
00
00
00
00
00
00
00
00
00
00
ENDCHAR
STARTCHAR 1
ENCODING 33
SWIDTH    8000    0
DWIDTH    8    0
BBX  8  13  0   -1
BITMAP
00
00
00
20
60
FF
60
20
00
00
00
00
00
ENDCHAR
STARTCHAR 2
ENCODING 34
SWIDTH    8000    0
DWIDTH    8    0
BBX  8  13  0   -1
BITMAP
00
00
00
04
06
FF
06
04
00
00
00
00
00
ENDCHAR
STARTCHAR 3
ENCODING 35
SWIDTH    8000    0
DWIDTH    8    0
BBX  8  13  0   -1
BITMAP
01
02
02
04
04
08
08
10
20
20
40
40
80
ENDCHAR
STARTCHAR 4
ENCODING 36
SWIDTH    8000    0
DWIDTH    8    0
BBX  8  13  0   -1
BITMAP
80
40
40
20
20
10
10
08
04
04
02
02
01
ENDCHAR
STARTCHAR 5
ENCODING 37
SWIDTH    8000    0
DWIDTH    8    0
BBX  8  13  0   -1
BITMAP
00
00
00
00
00
00
00
00
00
00
00
00
00
ENDCHAR
STARTCHAR 6
ENCODING 38
SWIDTH    8000    0
DWIDTH    8    0
BBX  8  13  0   -1
BITMAP
00
00
00
00
00
00
FF
00
00
00
00
00
00
ENDCHAR
STARTCHAR 7
ENCODING 39
SWIDTH    8000    0
DWIDTH    8    0
BBX  8  13  0   -1
BITMAP
00
00
00
00
00
FF
00
00
00
00
00
00
00
ENDCHAR
STARTCHAR 8
ENCODING 40
SWIDTH    8000    0
DWIDTH    8    0
BBX  8  13  0   -1
BITMAP
08
08
08
08
08
08
08
08
08
08
08
08
08
ENDCHAR
STARTCHAR 9
ENCODING 41
SWIDTH    8000    0
DWIDTH    8    0
BBX  8  13  0   -1
BITMAP
10
10
10
10
10
10
10
10
10
10
10
10
10
ENDCHAR
STARTCHAR 10
ENCODING 42
SWIDTH    8000    0
DWIDTH    8    0
BBX  8  13  0   -1
BITMAP
08
08
08
08
08
FF
00
00
00
00
00
00
00
ENDCHAR
STARTCHAR 11
ENCODING 43
SWIDTH    8000    0
DWIDTH    8    0
BBX  8  13  0   -1
BITMAP
00
00
00
00
00
00
FF
08
08
08
08
08
08
ENDCHAR
STARTCHAR 12
ENCODING 44
SWIDTH    8000    0
DWIDTH    8    0
BBX  8  13  0   -1
BITMAP
08
08
08
08
08
08
0F
08
08
08
08
08
08
ENDCHAR
STARTCHAR 13
ENCODING 45
SWIDTH    8000    0
DWIDTH    8    0
BBX  8  13  0   -1
BITMAP
10
10
10
10
10
10
F0
10
10
10
10
10
10
ENDCHAR
STARTCHAR 14
ENCODING 46
SWIDTH    8000    0
DWIDTH    8    0
BBX  8  13  0   -1
BITMAP
10
10
10
10
10
10
1F
00
00
00
00
00
00
ENDCHAR
STARTCHAR 15
ENCODING 47
SWIDTH    8000    0
DWIDTH    8    0
BBX  8  13  0   -1
BITMAP
00
00
00
00
00
1F
10
10
10
10
10
10
10
ENDCHAR
STARTCHAR 16
ENCODING 48
SWIDTH    8000    0
DWIDTH    8    0
BBX  8  13  0   -1
BITMAP
00
00
00
00
00
F8
08
08
08
08
08
08
08
ENDCHAR
STARTCHAR 17
ENCODING 49
SWIDTH    8000    0
DWIDTH    8    0
BBX  8  13  0   -1
BITMAP
08
08
08
08
08
08
F8
00
00
00
00
00
00
ENDCHAR
STARTCHAR 18
ENCODING 50
SWIDTH    8000    0
DWIDTH    8    0
BBX  8  13  0   -1
BITMAP
10
10
10
10
10
10
1F
20
20
40
40
80
80
ENDCHAR
STARTCHAR 19
ENCODING 51
SWIDTH    8000    0
DWIDTH    8    0
BBX  8  13  0   -1
BITMAP
80
80
40
40
20
1F
10
10
10
10
10
10
10
ENDCHAR
STARTCHAR 20
ENCODING 52
SWIDTH    8000    0
DWIDTH    8    0
BBX  8  13  0   -1
BITMAP
01
02
02
04
04
F8
08
08
08
08
08
08
08
ENDCHAR
STARTCHAR 21
ENCODING 53
SWIDTH    8000    0
DWIDTH    8    0
BBX  8  13  0   -1
BITMAP
08
08
08
08
08
08
F8
04
04
02
02
01
01
ENDCHAR
STARTCHAR 22
ENCODING 54
SWIDTH    8000    0
DWIDTH    8    0
BBX  8  13  0   -1
BITMAP
FF
FF
FF
FF
FF
FF
FF
FF
FF
FF
FF
FF
FF
ENDCHAR
STARTCHAR 23
ENCODING 55
SWIDTH    8000    0
DWIDTH    8    0
BBX  8  13  0   -1
BITMAP
FF
FF
FF
FF
FF
FF
FF
00
00
00
00
00
00
ENDCHAR
STARTCHAR 24
ENCODING 56
SWIDTH    8000    0
DWIDTH    8    0
BBX  8  13  0   -1
BITMAP
00
00
00
00
00
FF
FF
FF
FF
FF
FF
FF
FF
ENDCHAR
STARTCHAR 25
ENCODING 57
SWIDTH    8000    0
DWIDTH    8    0
BBX  8  13  0   -1
BITMAP
F8
F8
F8
F8
F8
F8
F8
F8
F8
F8
F8
F8
F8
ENDCHAR
STARTCHAR 26
ENCODING 58
SWIDTH    8000    0
DWIDTH    8    0
BBX  8  13  0   -1
BITMAP
1F
1F
1F
1F
1F
1F
1F
1F
1F
1F
1F
1F
1F
ENDCHAR
STARTCHAR 27
ENCODING 59
SWIDTH    8000    0
DWIDTH    8    0
BBX  8  13  0   -1
BITMAP
08
08
08
08
08
FF
FF
FF
FF
FF
FF
FF
FF
ENDCHAR
STARTCHAR 28
ENCODING 60
SWIDTH    8000    0
DWIDTH    8    0
BBX  8  13  0   -1
BITMAP
FF
FF
FF
FF
FF
FF
FF
08
08
08
08
08
08
ENDCHAR
STARTCHAR 29
ENCODING 61
SWIDTH    8000    0
DWIDTH    8    0
BBX  8  13  0   -1
BITMAP
F8
F8
F8
F8
F8
F8
FF
F8
F8
F8
F8
F8
F8
ENDCHAR
STARTCHAR 30
ENCODING 62
SWIDTH    8000    0
DWIDTH    8    0
BBX  8  13  0   -1
BITMAP
1F
1F
1F
1F
1F
1F
FF
1F
1F
1F
1F
1F
1F
ENDCHAR
STARTCHAR 31
ENCODING 63
SWIDTH    8000    0
DWIDTH    8    0
BBX  8  13  0   -1
BITMAP
1F
1F
1F
1F
1F
1F
1F
00
00
00
00
00
00
ENDCHAR
STARTCHAR 32
ENCODING 64
SWIDTH    8000    0
DWIDTH    8    0
BBX  8  13  0   -1
BITMAP
00
00
00
00
00
1F
1F
1F
1F
1F
1F
1F
1F
ENDCHAR
STARTCHAR 33
ENCODING 65
SWIDTH    8000    0
DWIDTH    8    0
BBX  8  13  0   -1
BITMAP
00
00
00
00
00
F8
F8
F8
F8
F8
F8
F8
F8
ENDCHAR
STARTCHAR 34
ENCODING 66
SWIDTH    8000    0
DWIDTH    8    0
BBX  8  13  0   -1
BITMAP
F8
F8
F8
F8
F8
F8
F8
00
00
00
00
00
00
ENDCHAR
STARTCHAR 35
ENCODING 67
SWIDTH    8000    0
DWIDTH    8    0
BBX  8  13  0   -1
BITMAP
1F
1F
1F
1F
1F
1F
1F
10
20
20
40
40
80
ENDCHAR
STARTCHAR 36
ENCODING 68
SWIDTH    8000    0
DWIDTH    8    0
BBX  8  13  0   -1
BITMAP
80
40
40
20
20
1F
1F
1F
1F
1F
1F
1F
1F
ENDCHAR
STARTCHAR 37
ENCODING 69
SWIDTH    8000    0
DWIDTH    8    0
BBX  8  13  0   -1
BITMAP
01
02
02
04
04
F8
F8
F8
F8
F8
F8
F8
F8
ENDCHAR
STARTCHAR 38
ENCODING 70
SWIDTH    8000    0
DWIDTH    8    0
BBX  8  13  0   -1
BITMAP
F8
F8
F8
F8
F8
F8
F8
08
04
04
02
02
01
ENDCHAR
STARTCHAR 39
ENCODING 71
SWIDTH    8000    0
DWIDTH    8    0
BBX  8  13  0   -1
BITMAP
01
00
00
00
00
00
00
00
00
00
00
00
00
ENDCHAR
STARTCHAR 40
ENCODING 72
SWIDTH    8000    0
DWIDTH    8    0
BBX  8  13  0   -1
BITMAP
00
00
00
00
00
00
00
00
00
00
00
00
01
ENDCHAR
STARTCHAR 41
ENCODING 73
SWIDTH    8000    0
DWIDTH    8    0
BBX  8  13  0   -1
BITMAP
00
00
00
00
00
00
00
00
00
00
00
00
80
ENDCHAR
STARTCHAR 42
ENCODING 74
SWIDTH    8000    0
DWIDTH    8    0
BBX  8  13  0   -1
BITMAP
80
00
00
00
00
00
00
00
00
00
00
00
00
ENDCHAR
STARTCHAR 43
ENCODING 75
SWIDTH    8000    0
DWIDTH    8    0
BBX  8  13  0   -1
BITMAP
FF
00
00
00
00
00
00
00
00
00
00
00
00
ENDCHAR
STARTCHAR 44
ENCODING 76
SWIDTH    8000    0
DWIDTH    8    0
BBX  8  13  0   -1
BITMAP
00
00
00
00
00
00
00
00
00
00
00
00
FF
ENDCHAR
STARTCHAR 45
ENCODING 77
SWIDTH    8000    0
DWIDTH    8    0
BBX  8  13  0   -1
BITMAP
80
80
80
80
80
80
80
80
80
80
80
80
80
ENDCHAR
STARTCHAR 46
ENCODING 78
SWIDTH    8000    0
DWIDTH    8    0
BBX  8  13  0   -1
BITMAP
01
01
01
01
01
01
01
01
01
01
01
01
01
ENDCHAR
STARTCHAR 47
ENCODING 79
SWIDTH    8000    0
DWIDTH    8    0
BBX  8  13  0   -1
BITMAP
00
FF
00
00
00
00
00
00
00
00
00
FF
00
ENDCHAR
STARTCHAR 48
ENCODING 80
SWIDTH    8000    0
DWIDTH    8    0
BBX  8  13  0   -1
BITMAP
00
FF
80
80
80
80
80
80
80
80
80
FF
00
ENDCHAR
STARTCHAR 49
ENCODING 81
SWIDTH    8000    0
DWIDTH    8    0
BBX  8  13  0   -1
BITMAP
00
FF
C0
C0
C0
C0
C0
C0
C0
C0
C0
FF
00
ENDCHAR
STARTCHAR 50
ENCODING 82
SWIDTH    8000    0
DWIDTH    8    0
BBX  8  13  0   -1
BITMAP
00
FF
E0
E0
E0
E0
E0
E0
E0
E0
E0
FF
00
ENDCHAR
STARTCHAR 51
ENCODING 83
SWIDTH    8000    0
DWIDTH    8    0
BBX  8  13  0   -1
BITMAP
00
FF
F0
F0
F0
F0
F0
F0
F0
F0
F0
FF
00
ENDCHAR
STARTCHAR 52
ENCODING 84
SWIDTH    8000    0
DWIDTH    8    0
BBX  8  13  0   -1
BITMAP
00
FF
F8
F8
F8
F8
F8
F8
F8
F8
F8
FF
00
ENDCHAR
STARTCHAR 53
ENCODING 85
SWIDTH    8000    0
DWIDTH    8    0
BBX  8  13  0   -1
BITMAP
00
FF
FC
FC
FC
FC
FC
FC
FC
FC
FC
FF
00
ENDCHAR
STARTCHAR 54
ENCODING 86
SWIDTH    8000    0
DWIDTH    8    0
BBX  8  13  0   -1
BITMAP
00
FF
FE
FE
FE
FE
FE
FE
FE
FE
FE
FF
00
ENDCHAR
STARTCHAR 55
ENCODING 87
SWIDTH    8000    0
DWIDTH    8    0
BBX  8  13  0   -1
BITMAP
00
FF
FF
FF
FF
FF
FF
FF
FF
FF
FF
FF
00
ENDCHAR
STARTCHAR 56
ENCODING 88
SWIDTH    8000    0
DWIDTH    8    0
BBX  8  13  0   -1
BITMAP
00
01
01
01
01
01
01
01
01
01
01
01
00
ENDCHAR
STARTCHAR 57
ENCODING 89
SWIDTH    8000    0
DWIDTH    8    0
BBX  8  13  0   -1
BITMAP
00
80
80
80
80
80
80
80
80
80
80
80
00
ENDCHAR
STARTCHAR 58
ENCODING 90
SWIDTH    8000    0
DWIDTH    8    0
BBX  8  13  0   -1
BITMAP
81
42
42
24
24
18
18
18
24
24
42
42
81
ENDCHAR
STARTCHAR 59
ENCODING 91
SWIDTH    8000    0
DWIDTH    8    0
BBX  8  13  0   -1
BITMAP
08
08
08
08
08
08
FF
08
08
08
08
08
08
ENDCHAR
STARTCHAR 60
ENCODING 92
SWIDTH    8000    0
DWIDTH    8    0
BBX  8  13  0   -1
BITMAP
08
1C
3E
08
08
08
08
08
08
08
08
08
08
ENDCHAR
STARTCHAR 61
ENCODING 93
SWIDTH    8000    0
DWIDTH    8    0
BBX  8  13  0   -1
BITMAP
08
08
08
08
08
08
08
08
08
08
3E
1C
08
ENDCHAR
STARTCHAR 62
ENCODING 94
SWIDTH    8000    0
DWIDTH    8    0
BBX  8  13  0   -1
BITMAP
08
1C
3E
08
08
08
08
08
08
08
3E
1C
08
ENDCHAR
STARTCHAR 63
ENCODING 95
SWIDTH    8000    0
DWIDTH    8    0
BBX  8  13  0   -1
BITMAP
FF
81
81
81
81
81
81
81
81
81
81
81
FF
ENDCHAR
STARTCHAR 64
ENCODING 96
SWIDTH    8000    0
DWIDTH    8    0
BBX  8  13  0   -1
BITMAP
38
44
82
02
02
04
08
10
10
10
00
00
10
ENDCHAR
STARTCHAR 65
ENCODING 97
SWIDTH    8000    0
DWIDTH    8    0
BBX  8  13  0   -1
BITMAP
00
C4
A8
90
80
C0
A0
90
80
80
80
80
80
ENDCHAR
STARTCHAR 66
ENCODING 98
SWIDTH    8000    0
DWIDTH    8    0
BBX  8  13  0   -1
BITMAP
00
E0
90
88
88
84
FC
84
88
88
90
90
E0
ENDCHAR
STARTCHAR 67
ENCODING 99
SWIDTH    8000    0
DWIDTH    8    0
BBX  8  13  0   -1
BITMAP
00
10
18
14
12
10
10
10
10
90
50
30
10
ENDCHAR
STARTCHAR 68
ENCODING 100
SWIDTH    8000    0
DWIDTH    8    0
BBX  8  13  0   -1
BITMAP
00
82
C6
C6
AA
AA
92
92
AA
AA
C6
C6
82
ENDCHAR
STARTCHAR 69
ENCODING 101
SWIDTH    8000    0
DWIDTH    8    0
BBX  8  13  0   -1
BITMAP
00
C2
C6
A6
AA
9A
92
82
82
82
82
82
82
ENDCHAR
STARTCHAR 70
ENCODING 102
SWIDTH    8000    0
DWIDTH    8    0
BBX  8  13  0   -1
BITMAP
00
92
92
A4
A4
C8
C8
90
90
A0
A0
C0
C0
ENDCHAR
STARTCHAR 71
ENCODING 103
SWIDTH    8000    0
DWIDTH    8    0
BBX  8  13  0   -1
BITMAP
00
82
44
44
28
6C
92
54
28
28
44
44
82
ENDCHAR
STARTCHAR 72
ENCODING 104
SWIDTH    8000    0
DWIDTH    8    0
BBX  8  13  0   -1
BITMAP
00
C2
A2
A2
92
8A
8A
C6
A2
92
92
8A
86
ENDCHAR
STARTCHAR 73
ENCODING 105
SWIDTH    8000    0
DWIDTH    8    0
BBX  8  13  0   -1
BITMAP
00
10
10
10
10
10
10
10
10
10
10
10
10
ENDCHAR
STARTCHAR 74
ENCODING 106
SWIDTH    8000    0
DWIDTH    8    0
BBX  8  13  0   -1
BITMAP
00
10
38
38
54
54
92
92
54
54
38
38
10
ENDCHAR
STARTCHAR 75
ENCODING 107
SWIDTH    8000    0
DWIDTH    8    0
BBX  8  13  0   -1
BITMAP
00
80
80
80
C0
C0
A0
90
88
88
84
84
84
ENDCHAR
STARTCHAR 76
ENCODING 108
SWIDTH    8000    0
DWIDTH    8    0
BBX  8  13  0   -1
BITMAP
00
C0
A0
90
90
88
84
80
80
80
80
80
80
ENDCHAR
STARTCHAR 77
ENCODING 109
SWIDTH    8000    0
DWIDTH    8    0
BBX  8  13  0   -1
BITMAP
00
C6
AA
AA
92
92
AA
AA
C6
82
82
82
82
ENDCHAR
STARTCHAR 78
ENCODING 110
SWIDTH    8000    0
DWIDTH    8    0
BBX  8  13  0   -1
BITMAP
00
90
50
50
30
30
10
10
18
18
14
14
12
ENDCHAR
STARTCHAR 79
ENCODING 111
SWIDTH    8000    0
DWIDTH    8    0
BBX  8  13  0   -1
BITMAP
00
C6
AA
92
82
C4
A8
90
80
80
80
80
80
ENDCHAR
STARTCHAR 80
ENCODING 112
SWIDTH    8000    0
DWIDTH    8    0
BBX  8  13  0   -1
BITMAP
00
80
80
80
80
80
84
8C
94
94
A4
C4
84
ENDCHAR
STARTCHAR 81
ENCODING 113
SWIDTH    8000    0
DWIDTH    8    0
BBX  8  13  0   -1
BITMAP
00
BA
54
10
10
10
10
10
10
10
10
10
10
ENDCHAR
STARTCHAR 82
ENCODING 114
SWIDTH    8000    0
DWIDTH    8    0
BBX  8  13  0   -1
BITMAP
00
70
48
44
44
44
48
70
48
48
44
44
42
ENDCHAR
STARTCHAR 83
ENCODING 115
SWIDTH    8000    0
DWIDTH    8    0
BBX  8  13  0   -1
BITMAP
00
80
86
86
8A
8A
92
92
A2
A2
C2
02
02
ENDCHAR
STARTCHAR 84
ENCODING 116
SWIDTH    8000    0
DWIDTH    8    0
BBX  8  13  0   -1
BITMAP
00
38
54
92
10
10
10
10
10
10
10
10
10
ENDCHAR
STARTCHAR 85
ENCODING 117
SWIDTH    8000    0
DWIDTH    8    0
BBX  8  13  0   -1
BITMAP
00
40
60
50
50
48
44
44
44
44
44
44
44
ENDCHAR
STARTCHAR 86
ENCODING 118
SWIDTH    8000    0
DWIDTH    8    0
BBX  8  13  0   -1
BITMAP
00
38
44
44
28
28
10
10
28
28
44
44
82
ENDCHAR
STARTCHAR 87
ENCODING 119
SWIDTH    8000    0
DWIDTH    8    0
BBX  8  13  0   -1
BITMAP
00
70
48
44
44
48
70
40
40
40
40
40
40
ENDCHAR
STARTCHAR 88
ENCODING 120
SWIDTH    8000    0
DWIDTH    8    0
BBX  8  13  0   -1
BITMAP
00
10
10
10
10
10
38
54
54
54
92
92
92
ENDCHAR
STARTCHAR 89
ENCODING 121
SWIDTH    8000    0
DWIDTH    8    0
BBX  8  13  0   -1
BITMAP
00
90
D8
D8
B4
B4
92
92
9A
9A
96
96
92
ENDCHAR
STARTCHAR 90
ENCODING 122
SWIDTH    8000    0
DWIDTH    8    0
BBX  8  13  0   -1
BITMAP
00
3E
20
40
40
80
80
40
40
20
10
10
0E
ENDCHAR
STARTCHAR 91
ENCODING 123
SWIDTH    8000    0
DWIDTH    8    0
BBX  8  13  0   -1
BITMAP
F7
E3
C1
F7
F7
F7
F7
F7
F7
F7
F7
F7
F7
ENDCHAR
STARTCHAR 92
ENCODING 124
SWIDTH    8000    0
DWIDTH    8    0
BBX  8  13  0   -1
BITMAP
F7
F7
F7
F7
F7
F7
F7
F7
F7
F7
C1
E3
F7
ENDCHAR
STARTCHAR 93
ENCODING 125
SWIDTH    8000    0
DWIDTH    8    0
BBX  8  13  0   -1
BITMAP
F7
E3
C1
F7
F7
F7
F7
F7
F7
F7
C1
E3
F7
ENDCHAR
STARTCHAR 94
ENCODING 126
SWIDTH    8000    0
DWIDTH    8    0
BBX  8  13  0   -1
BITMAP
C7
BB
7D
FD
FD
FB
F7
EF
EF
EF
FF
FF
EF
ENDCHAR
STARTCHAR 95
ENCODING 127
SWIDTH    8000    0
DWIDTH    8    0
BBX  8  13  0   -1
BITMAP
00
00
00
00
00
00
00
00
00
00
00
00
00
ENDCHAR
ENDFONT
